<?xml version="1.0" encoding="UTF-8"?>
<svg width="58px" height="74px" viewBox="0 0 58 74" version="1.1" xmlns="http://www.w3.org/2000/svg" xmlns:xlink="http://www.w3.org/1999/xlink">
    <!-- Generator: Sketch 54.1 (76490) - https://sketchapp.com -->
    <title>NYT</title>
    <desc>Created with Sketch.</desc>
    <g id="Page-1" stroke="none" stroke-width="1" fill="none" fill-rule="evenodd">
        <path d="M57.5,45.78 C55.08,52.09 50.83,56.88 44.47,59.47 L44.47,45.76 L51.89,38.97 L44.47,32.27 L44.47,22.81 C51.41,22.34 55.81,17.12 55.81,10.89 C55.81,2.74 48.24,0 43.8,0 C42.83,0 41.78,0 40.23,0.38 L40.23,0.76 C40.81,0.76 41.68,0.66 41.97,0.66 C45.06,0.66 47.38,2.1 47.38,4.87 C47.38,6.97 45.75,9.26 42.67,9.26 C35.06,9.26 25.97,2.95 16.22,2.95 C7.54,2.95 1.55,9.36 1.55,15.87 C1.55,22.28 5.32,24.39 9.26,25.82 L9.36,25.44 C8.11,24.67 7.24,23.34 7.24,21.23 C7.23,18.4 9.93,16 13.32,16 C21.53,16 34.75,22.8 42.93,22.8 L44,22.8 L44,32.38 L36.09,38.99 L44,45.76 L44,59.74 C40.81,60.88 37.24,61.4 33.87,61.4 C21.14,61.4 13.04,53.75 13.04,41.01 C13.04,37.94 13.42,34.97 14.29,32.1 L21,29 L21,57 L33,52 L33,22.81 L14.57,31.42 C16.49,25.87 20.46,21.84 25.18,19.54 L25.08,19.25 C12.35,22.04 0,31.6 0,45.96 C0,62.51 14.09,74 30.49,74 C47.85,74 57.92,62.51 58,45.76 L57.5,45.76 L57.5,45.78 Z" id="NYT" fill="#FFFFFF" fill-rule="nonzero"></path>
    </g>
</svg>